<?xml version="1.0" encoding="utf-8"?>
<!-- Generator: Adobe Illustrator 24.0.3, SVG Export Plug-In . SVG Version: 6.00 Build 0)  -->
<svg version="1.1" id="Calque_1" xmlns="http://www.w3.org/2000/svg" xmlns:xlink="http://www.w3.org/1999/xlink" x="0px" y="0px"
	 viewBox="0 0 193.5 110.9" style="enable-background:new 0 0 193.5 110.9;" xml:space="preserve">
<style type="text/css">
	.st0{display:none;}
	.st1{fill:#0FA9CE;}
</style>
<g id="Arrière-plan_xA0_Image_1_" class="st0">
</g>
<g>
	<path class="st1" d="M135.4,79.7c-1.5,1.2-2.8,2.4-4.3,3.4c-7.5,5.3-15.7,7.5-24.8,5.5c-5.4-1.2-9.8-4.2-12.9-8.9
		c-0.2-0.3-0.4-0.6-0.7-0.9c-1,0.9-2,1.9-3,2.7c-6.1,5.1-13.1,7.9-21.1,7.8c-7.5-0.1-13.8-2.8-18.3-9.1c-0.1-0.2-0.3-0.3-0.7-0.8
		c-0.3,0.5-0.6,1-1,1.4c-5.3,5.5-11.7,8.5-19.4,8.5c-4.3,0-8.2-1.4-11.5-4.2c-0.2-0.2-0.4-0.3-0.8-0.6c-0.2,0.9-0.4,1.7-0.5,2.4
		c-0.1,0.7-0.4,1-1.1,1c-4.9,0-9.7,0-14.6,0c-1,0-1-0.5-0.8-1.2c1.9-10.6,3.7-21.1,5.6-31.7c2.7-15.1,5.3-30.3,8-45.4
		c0.2-0.9,0.6-1.5,1.4-1.9c4.9-2.2,9.8-4.5,14.7-6.7c0.6-0.3,1.2-0.5,2.1-0.9c-1.7,9.6-3.3,19-5,28.6c0.7-0.5,1.1-0.7,1.6-1
		c4-2.7,8.3-4.5,13.3-4.3c7,0.3,12.7,2.8,16.1,9.2c0.1,0.2,0.2,0.3,0.4,0.5c1.3-1.1,2.5-2.1,3.7-3.1c5.7-4.4,12.1-6.7,19.4-6.6
		c8,0.1,14.5,3.1,19,10c0.1,0.2,0.3,0.4,0.5,0.6c1.1-1,2.1-2,3.2-2.9c6-5,12.8-7.8,20.7-7.6c7.5,0.1,13.9,2.8,18.4,9.1
		c0.1,0.2,0.3,0.3,0.5,0.5c4.3-4.7,9.3-8.1,15.6-9.2c6.3-1.1,12.2-0.2,17.3,4.5c0.2-1,0.4-1.8,0.5-2.6c0.1-0.7,0.4-1,1.1-1
		c4.8,0,9.6,0,14.5,0c1.1,0,1.1,0.5,0.9,1.3c-1,5.5-1.9,10.9-2.9,16.4c-2.9,16.3-5.7,32.5-8.6,48.8c-0.6,3.6-1.2,7.2-1.9,10.8
		c-0.1,0.5-0.5,1-0.9,1.2c-5.4,2.5-10.8,5-16.2,7.5c-0.2,0.1-0.5,0.2-1,0.3c1.6-9,3.1-17.8,4.7-27c-1,0.6-1.7,1.1-2.4,1.5
		c-6,4-12.5,4.8-19.3,2.6c-3.8-1.3-6.6-3.7-8.7-7.1C136,80.6,135.7,80.2,135.4,79.7z M62.8,61.6c-0.1,2.4,0.3,4.8,1.2,7.1
		c1.1,2.5,2.9,4,5.6,4.5c3.6,0.7,6.9-0.1,9.7-2.4c3.4-2.7,5.3-6.3,6.5-10.3c1.6-5.2,2.4-10.4,0.6-15.7c-1.2-3.6-3.9-5.5-7.7-5.6
		c-5.1-0.2-8.8,2.2-11.4,6.4C64.2,50.5,63,55.9,62.8,61.6z M106.2,61.7c-0.1,2.5,0.3,4.8,1.3,7.1c1,2.4,2.9,3.9,5.5,4.5
		c4.7,0.9,8.6-0.6,11.7-4.1c3.4-3.8,5-8.4,5.8-13.3c0.7-3.9,0.7-7.7-0.7-11.4c-1.1-2.8-3.1-4.6-6.1-5.1c-5.1-0.8-9.2,0.9-12.2,5.1
		C107.8,49.6,106.5,55.5,106.2,61.7z M43.9,50.3c-0.3-1.8-0.4-3.6-0.8-5.3c-1-3.7-3.9-5.8-7.7-5.9c-3.9-0.1-7.2,1.4-10,4
		c-0.8,0.7-1.3,1.5-1.5,2.6c-1.2,7-2.4,14.1-3.7,21.1c-0.2,0.9,0,1.5,0.5,2.2c3.4,4.6,11,5.8,15.6,2.4c2.3-1.7,3.7-4.1,4.7-6.7
		C42.7,60.2,43.5,55.3,43.9,50.3z M149.8,62.7c0.1,0.8,0.2,2.1,0.3,3.5c0.1,0.6,0.3,1.3,0.5,1.9c1.2,3.5,3.9,5.3,7.6,5.4
		c4.4,0.1,7.8-1.8,10.8-4.8c0.4-0.4,0.6-1,0.7-1.5c1.2-7,2.4-13.9,3.7-20.9c0.3-1.5,0-2.6-1-3.6c-0.4-0.4-0.8-0.8-1.2-1.2
		c-5.3-4.2-13-3-16.7,2.7c-0.9,1.4-1.6,2.9-2.2,4.4C150.7,53,150,57.6,149.8,62.7z"/>
</g>
<g id="webdesign__x26__development" class="st0">
</g>
</svg>
